<?xml version="1.0" encoding="UTF-8"?> <svg xmlns="http://www.w3.org/2000/svg" width="215" height="33" viewBox="0 0 215 33" fill="none"> <g clip-path="url(#clip0_180_3913)"> <path d="M48.8906 8.41285H44.9131V17.3513H40.5925V8.41285H36.5918V4.96045H48.8913V8.41285H48.8906Z" fill="#1A2F7F"></path> <path d="M62.4253 10.4702V17.3518H58.3788V15.7518C57.7616 16.9405 56.5272 17.5578 54.7212 17.5578C51.7489 17.5578 50.1033 15.8889 50.1033 13.7398C50.1033 11.4537 51.7722 10.0365 55.6126 10.0365H58.0815C58.0126 8.77882 57.1669 8.07021 55.4523 8.07021C54.2635 8.07021 52.9377 8.48144 52.092 9.14435L50.6291 6.19532C52.0463 5.25825 54.1497 4.75488 56.0927 4.75488C60.1167 4.75488 62.4253 6.53839 62.4253 10.4702ZM58.0815 13.3735V12.2994H56.2066C54.8118 12.2994 54.3092 12.802 54.3092 13.557C54.3092 14.3121 54.904 14.8147 55.9324 14.8147C56.8927 14.8147 57.7384 14.3578 58.0815 13.3743V13.3735Z" fill="#1A2F7F"></path> <path d="M65.4889 4.961H69.8095V11.4538L74.9989 4.961H78.9996V17.3519H74.6559V10.8366L69.5121 17.3519H65.4882V4.961H65.4889ZM67.6604 0H70.4724C70.4956 1.00598 70.8836 1.59999 71.9353 1.59999C72.987 1.59999 73.4439 1.00523 73.4439 0H76.3015C76.3015 2.56028 74.9068 3.77225 71.9578 3.77225C69.0087 3.77225 67.6829 2.56028 67.6597 0H67.6604Z" fill="#1A2F7F"></path> <path d="M94.4093 17.3518V10.8365L91.2318 16.2545H89.3801L86.294 10.7452V17.3518H82.3846V4.96094H86.9569L90.4093 11.4305L94.204 4.96094H98.2961L98.3193 17.3518H94.41H94.4093Z" fill="#1A2F7F"></path> <path d="M114.321 4.96097V17.3519H109.978V8.41262H106.846L106.754 10.31C106.572 14.7684 105.772 17.6485 102.548 17.6485C101.953 17.6485 101.244 17.5339 100.444 17.3511L100.627 13.8073C100.833 13.8306 101.016 13.853 101.175 13.853C102.684 13.853 102.844 12.253 102.936 10.1265L103.118 4.95947H114.321L114.321 4.96097Z" fill="#1A2F7F"></path> <path d="M117.706 4.96094H122.026V11.4538L127.216 4.96094H131.216V17.3518H126.873V10.8365L121.729 17.3518H117.705V4.96094H117.706Z" fill="#1A2F7F"></path> <path d="M133.708 11.1331C133.708 7.40654 136.657 4.75488 140.818 4.75488C143.63 4.75488 145.779 6.01255 146.625 8.16159L143.264 9.87618C142.669 8.7099 141.801 8.20728 140.795 8.20728C139.286 8.20728 138.097 9.25896 138.097 11.1338C138.097 13.0087 139.286 14.1061 140.795 14.1061C141.801 14.1061 142.67 13.6035 143.264 12.4372L146.625 14.1518C145.779 16.3008 143.63 17.5585 140.818 17.5585C136.657 17.5585 133.708 14.9068 133.708 11.1346V11.1331Z" fill="#1A2F7F"></path> <path d="M160 8.41285H156.022V17.3513H151.702V8.41285H147.701V4.96045H160.001V8.41285H160Z" fill="#1A2F7F"></path> <path d="M40.2071 28.5427C40.2071 27.1651 41.24 26.1929 42.652 26.1929C44.064 26.1929 45.1052 27.1659 45.1052 28.5427C45.1052 29.9194 44.0805 30.9014 42.652 30.9014C41.2236 30.9014 40.2071 29.9202 40.2071 28.5427ZM44.0205 28.5427C44.0205 27.6648 43.4355 27.1052 42.652 27.1052C41.8685 27.1052 41.2917 27.6648 41.2917 28.5427C41.2917 29.4206 41.8767 29.9801 42.652 29.9801C43.4273 29.9801 44.0205 29.4206 44.0205 28.5427Z" fill="#1A2F7F"></path> <path d="M51.2167 28.5427C51.2167 29.9719 50.2265 30.9014 48.8842 30.9014C48.2992 30.9014 47.7823 30.7037 47.4123 30.282V32.5112H46.3359V26.2446H47.3606V26.8468C47.7224 26.4079 48.2557 26.1929 48.8842 26.1929C50.2272 26.1929 51.2167 27.1225 51.2167 28.5427ZM50.1239 28.5427C50.1239 27.6648 49.5388 27.1052 48.7636 27.1052C47.9883 27.1052 47.395 27.6648 47.395 28.5427C47.395 29.4206 47.989 29.9801 48.7636 29.9801C49.5381 29.9801 50.1239 29.4206 50.1239 28.5427Z" fill="#1A2F7F"></path> <path d="M55.9857 27.1565H53.5325V30.8411H52.4561V26.2441H55.9857V27.1565Z" fill="#1A2F7F"></path> <path d="M60.7466 28.1464V30.8408H59.7309V30.2813C59.4724 30.6775 58.9736 30.9007 58.2844 30.9007C57.2343 30.9007 56.5714 30.324 56.5714 29.5232C56.5714 28.7225 57.0882 28.1547 58.4822 28.1547H59.6702V28.0858C59.6702 27.4573 59.2912 27.0873 58.5256 27.0873C58.0088 27.0873 57.4755 27.2596 57.1309 27.5435L56.7092 26.7599C57.1998 26.3809 57.9144 26.1914 58.6545 26.1914C59.9803 26.1914 60.7466 26.8199 60.7466 28.1457V28.1464ZM59.6702 29.4034V28.8693H58.5601C57.8283 28.8693 57.6305 29.1449 57.6305 29.4805C57.6305 29.8678 57.9579 30.1172 58.5084 30.1172C59.059 30.1172 59.4897 29.876 59.6702 29.4026V29.4034Z" fill="#1A2F7F"></path> <path d="M62.2518 26.2441H63.3282V28.1123H65.6436V26.2441H66.72V30.8411H65.6436V29.0246H63.3282V30.8411H62.2518V26.2441Z" fill="#1A2F7F"></path> <path d="M68.3379 26.2441H69.4143V29.2741L71.9536 26.2441H72.9349V30.8411H71.8585V27.8112L69.3274 30.8411H68.3372V26.2441H68.3379Z" fill="#1A2F7F"></path> <path d="M78.1418 29.4896C78.1418 30.342 77.2205 30.9188 75.9381 30.9188C75.2325 30.9188 74.5261 30.7465 73.9756 30.4364L74.2857 29.6357C74.7336 29.8851 75.3186 30.0319 75.8872 30.0319C76.6018 30.0319 77.0407 29.7997 77.0407 29.4035C77.0407 29.0417 76.7134 28.8439 76.1366 28.8439H75.2415V28.1211H76.0505C76.5928 28.1211 76.9111 27.9316 76.9111 27.596C76.9111 27.2604 76.5239 27.0537 75.8782 27.0537C75.413 27.0537 74.9314 27.1653 74.4235 27.3893L74.1479 26.5975C74.7763 26.3046 75.3703 26.1758 75.9726 26.1758C77.1516 26.1758 78.013 26.6836 78.013 27.4409C78.013 27.8889 77.7119 28.2589 77.2385 28.4484C77.8063 28.6117 78.1426 28.9817 78.1426 29.4896H78.1418Z" fill="#1A2F7F"></path> <path d="M83.2299 28.1464V30.8408H82.2142V30.2813C81.9558 30.6775 81.4569 30.9007 80.7678 30.9007C79.7176 30.9007 79.0547 30.324 79.0547 29.5232C79.0547 28.7225 79.5715 28.1547 80.9655 28.1547H82.1535V28.0858C82.1535 27.4573 81.7745 27.0873 81.009 27.0873C80.4921 27.0873 79.9588 27.2596 79.6142 27.5435L79.1925 26.7599C79.6831 26.3809 80.3977 26.1914 81.1378 26.1914C82.4636 26.1914 83.2299 26.8199 83.2299 28.1457V28.1464ZM82.1535 29.4034V28.8693H81.0434C80.3116 28.8693 80.1139 29.1449 80.1139 29.4805C80.1139 29.8678 80.4412 30.1172 80.9917 30.1172C81.5423 30.1172 81.973 29.876 82.1535 29.4026V29.4034Z" fill="#1A2F7F"></path> <path d="M88.3774 27.1565H86.7677V30.8411H85.6913V27.1565H84.0734V26.2441H88.3774V27.1565Z" fill="#1A2F7F"></path> <path d="M88.7385 28.5427C88.7385 27.1651 89.7715 26.1929 91.1834 26.1929C92.5954 26.1929 93.6366 27.1659 93.6366 28.5427C93.6366 29.9194 92.6119 30.9014 91.1834 30.9014C89.755 30.9014 88.7385 29.9202 88.7385 28.5427ZM92.552 28.5427C92.552 27.6648 91.967 27.1052 91.1834 27.1052C90.3999 27.1052 89.8232 27.6648 89.8232 28.5427C89.8232 29.4206 90.4082 29.9801 91.1834 29.9801C91.9587 29.9801 92.552 29.4206 92.552 28.5427Z" fill="#1A2F7F"></path> <path d="M99.7481 28.5427C99.7481 29.9719 98.7579 30.9014 97.4156 30.9014C96.8306 30.9014 96.3137 30.7037 95.9437 30.282V32.5112H94.868V26.2446H95.8928V26.8468C96.2545 26.4079 96.7879 26.1929 97.4163 26.1929C98.7594 26.1929 99.7489 27.1225 99.7489 28.5427H99.7481ZM98.6545 28.5427C98.6545 27.6648 98.0695 27.1052 97.2942 27.1052C96.519 27.1052 95.9257 27.6648 95.9257 28.5427C95.9257 29.4206 96.5197 29.9801 97.2942 29.9801C98.0688 29.9801 98.6545 29.4206 98.6545 28.5427Z" fill="#1A2F7F"></path> <path d="M103.14 28.5427C103.14 27.1651 104.173 26.1929 105.628 26.1929C106.523 26.1929 107.237 26.5629 107.59 27.2603L106.764 27.7427C106.488 27.3037 106.075 27.106 105.619 27.106C104.827 27.106 104.224 27.6565 104.224 28.5434C104.224 29.4303 104.827 29.9809 105.619 29.9809C106.075 29.9809 106.488 29.7831 106.764 29.3442L107.59 29.8265C107.237 30.5149 106.523 30.9022 105.628 30.9022C104.173 30.9022 103.14 29.9209 103.14 28.5434V28.5427Z" fill="#1A2F7F"></path> <path d="M108.244 28.5427C108.244 27.1651 109.277 26.1929 110.689 26.1929C112.101 26.1929 113.142 27.1659 113.142 28.5427C113.142 29.9194 112.118 30.9014 110.689 30.9014C109.261 30.9014 108.244 29.9202 108.244 28.5427ZM112.058 28.5427C112.058 27.6648 111.473 27.1052 110.689 27.1052C109.906 27.1052 109.329 27.6648 109.329 28.5427C109.329 29.4206 109.914 29.9801 110.689 29.9801C111.464 29.9801 112.058 29.4206 112.058 28.5427Z" fill="#1A2F7F"></path> <path d="M118.557 29.5497C118.557 30.3587 117.954 30.8411 116.715 30.8411H114.373V26.2441H116.619C117.739 26.2441 118.41 26.6748 118.41 27.4321C118.41 27.9055 118.143 28.2584 117.704 28.4479C118.273 28.6201 118.557 28.9902 118.557 29.5497ZM115.397 28.164H116.524C117.075 28.164 117.36 27.9662 117.36 27.5872C117.36 27.2082 117.076 27.0277 116.524 27.0277H115.397V28.164ZM117.515 29.4808C117.515 29.0763 117.248 28.8778 116.662 28.8778H115.397V30.0568H116.628C117.204 30.0568 117.515 29.8763 117.515 29.4801V29.4808Z" fill="#1A2F7F"></path> <path d="M124.16 28.8867H120.553C120.682 29.5579 121.242 29.9886 122.042 29.9886C122.559 29.9886 122.964 29.8253 123.29 29.489L123.867 30.1519C123.454 30.6425 122.809 30.901 122.016 30.901C120.475 30.901 119.477 29.9107 119.477 28.5422C119.477 27.1736 120.484 26.1924 121.853 26.1924C123.221 26.1924 124.177 27.131 124.177 28.5684C124.177 28.6545 124.169 28.7834 124.16 28.8867ZM120.544 28.1721H123.152C123.066 27.5092 122.558 27.053 121.853 27.053C121.147 27.053 120.648 27.501 120.544 28.1721Z" fill="#1A2F7F"></path> <path d="M132.966 29.9288V31.7879H131.958V30.8411H125.528V26.2441H126.603V29.9288H128.385V26.2441H129.461V29.9288H131.226V26.2441H132.301V29.9288H132.964H132.966Z" fill="#1A2F7F"></path> <path d="M137.726 28.1464V30.8408H136.71V30.2813C136.452 30.6775 135.953 30.9007 135.264 30.9007C134.214 30.9007 133.551 30.324 133.551 29.5232C133.551 28.7225 134.068 28.1547 135.462 28.1547H136.65V28.0858C136.65 27.4573 136.271 27.0873 135.505 27.0873C134.988 27.0873 134.455 27.2596 134.11 27.5435L133.689 26.7599C134.179 26.3809 134.894 26.1914 135.634 26.1914C136.96 26.1914 137.726 26.8199 137.726 28.1457V28.1464ZM136.65 29.4034V28.8693H135.54C134.808 28.8693 134.611 29.1449 134.611 29.4805C134.611 29.8678 134.938 30.1172 135.489 30.1172C136.039 30.1172 136.47 29.876 136.65 29.4026V29.4034Z" fill="#1A2F7F"></path> <path d="M139.232 26.2441H140.308V28.1123H142.623V26.2441H143.699V30.8411H142.623V29.0246H140.308V30.8411H139.232V26.2441Z" fill="#1A2F7F"></path> <path d="M145.318 26.2441H146.394V29.2741L148.933 26.2441H149.914V30.8411H148.839V27.8112L146.308 30.8411H145.317V26.2441H145.318Z" fill="#1A2F7F"></path> <path d="M151.533 26.244H152.609V29.2739L155.148 26.244H156.129V30.841H155.054V27.811L152.522 30.841H151.532V26.244H151.533ZM152.325 24.4365H153.039C153.048 24.85 153.306 25.1077 153.754 25.1077C154.202 25.1077 154.469 24.8493 154.477 24.4365H155.209C155.191 25.2717 154.684 25.7017 153.762 25.7017C152.841 25.7017 152.333 25.271 152.325 24.4365Z" fill="#1A2F7F"></path> <path d="M9.77031 13.498H2.01758V21.2508H9.77031V13.498Z" fill="#1A2F7F"></path> <path d="M9.77031 23.3384H2.01758V31.0911H9.77031V23.3384Z" fill="#1A2F7F"></path> <path d="M23.066 5.69727H14.0908V9.37064H23.066V5.69727Z" fill="#1A2F7F"></path> <path d="M26.9132 15.5376H14.0908V19.211H26.9132V15.5376Z" fill="#1A2F7F"></path> <path d="M30.7596 25.3779H14.0908V29.0513H30.7596V25.3779Z" fill="#1A2F7F"></path> <path d="M5.93927 11.9181L0 6.76237L2.40822 3.98861L5.39396 6.58109L9.35122 1.40137L12.2703 3.63131L5.93927 11.9181Z" fill="#F33F1B"></path> </g> <g clip-path="url(#clip1_180_3913)"> <mask id="mask0_180_3913" style="mask-type:luminance" maskUnits="userSpaceOnUse" x="-40" y="-51" width="465" height="467"> <path d="M-39.9108 415.483H424.054V-50.4708H-39.9108V415.483Z" fill="white"></path> </mask> <g mask="url(#mask0_180_3913)"> <path d="M191.426 25.8071C190.479 25.7437 189.387 25.577 188.526 25.3265C188.364 25.2796 187.696 25.033 187.527 24.9547C184.528 23.5599 182.439 20.515 182.439 16.9824C182.439 12.1371 186.364 8.1905 191.192 8.1905C195.977 8.1905 199.876 12.0698 199.943 16.8603H203.105C203.038 10.3196 197.721 5.01878 191.192 5.01878C184.624 5.01878 179.278 10.3846 179.278 16.9824C179.278 21.531 181.825 25.487 185.555 27.5081C186.228 27.8658 187.195 28.2345 187.523 28.3354C188.586 28.6532 189.891 28.8646 191.052 28.953C191.446 28.9828 192.823 28.9984 193.225 29H215V25.8369H193.261C192.972 25.8369 191.709 25.8259 191.426 25.8071ZM193.261 20.8406C193.032 20.8406 191.829 20.8328 191.607 20.814C191.23 20.7819 190.685 20.7255 190.334 20.6449C189.938 20.5384 189.566 20.3975 189.399 20.3052C188.224 19.6672 187.424 18.4195 187.424 16.9824C187.424 14.8917 189.11 13.1962 191.192 13.1962C193.231 13.1962 194.889 14.8251 194.955 16.8603H197.993C197.929 13.1422 194.911 10.1458 191.192 10.1458C187.431 10.1458 184.383 13.2064 184.383 16.9824C184.383 19.6453 185.903 21.945 188.117 23.0714C188.457 23.2718 189.098 23.4816 189.28 23.5293C189.905 23.6945 190.745 23.8072 191.426 23.8573C191.678 23.8784 192.911 23.8878 193.171 23.8894V23.8941H214.999V20.8406H193.261ZM177.33 28.9883H174.146V8.19755H169.495V5H177.33V28.9883ZM166 9.79515V12.8698H169.495V28.9883H172.553V9.79515H166Z" fill="#D91920"></path> <path d="M209.375 5.22332C208.229 5.22332 207.278 6.14149 207.278 7.29371C207.278 8.44592 208.229 9.40088 209.375 9.40088C210.557 9.40088 211.471 8.44592 211.471 7.29371C211.471 6.14149 210.557 5.22332 209.375 5.22332ZM209.375 9.06116C208.428 9.06116 207.612 8.31363 207.612 7.29371C207.612 6.32544 208.428 5.55913 209.375 5.55913C210.322 5.55913 211.134 6.32544 211.134 7.29371C211.134 8.31363 210.322 9.06116 209.375 9.06116Z" fill="#D91920"></path> <path d="M210.174 7.86082C210.174 7.62834 210.14 7.4123 209.875 7.32698C210.207 7.21114 210.24 6.99275 210.24 6.86046C210.24 6.32584 209.756 6.25774 209.558 6.25774H208.643V8.32812H209.024V7.47884H209.325C209.756 7.47884 209.792 7.67844 209.792 7.86082C209.792 8.21384 209.792 8.28038 209.875 8.32812H210.257C210.174 8.24437 210.207 8.1794 210.174 7.86082ZM209.474 7.17669H209.024V6.52466H209.409C209.676 6.52466 209.857 6.6092 209.857 6.86046C209.857 6.99275 209.792 7.17669 209.474 7.17669Z" fill="#D91920"></path> </g> </g> <defs> <clipPath id="clip0_180_3913"> <rect width="160" height="32.5106" fill="white"></rect> </clipPath> <clipPath id="clip1_180_3913"> <rect width="49" height="24" fill="white" transform="translate(166 5)"></rect> </clipPath> </defs> </svg> 