<svg width="16" height="16" viewBox="0 0 16 16" fill="none" xmlns="http://www.w3.org/2000/svg">
<path fill-rule="evenodd" clip-rule="evenodd" d="M4 6.5C4 6.22386 4.22386 6 4.5 6C4.77614 6 5 6.22386 5 6.5C5 6.77614 4.77614 7 4.5 7C4.22386 7 4 6.77614 4 6.5ZM6 6.5C6 6.22386 6.22386 6 6.5 6C6.77614 6 7 6.22386 7 6.5C7 6.77614 6.77614 7 6.5 7C6.22386 7 6 6.77614 6 6.5ZM8 6.5C8 6.22386 8.22386 6 8.5 6C8.77614 6 9 6.22386 9 6.5C9 6.77614 8.77614 7 8.5 7C8.22386 7 8 6.77614 8 6.5Z" fill="#333333"/>
<path d="M6.5 11.5C9.26142 11.5 11.5 9.26142 11.5 6.5C11.5 3.73858 9.26142 1.5 6.5 1.5C3.73858 1.5 1.5 3.73858 1.5 6.5C1.5 9.26142 3.73858 11.5 6.5 11.5Z" stroke="#333333" stroke-linecap="round" stroke-linejoin="round"/>
<path d="M14.5 14.5L10.035 10.035" stroke="#333333" stroke-linecap="round" stroke-linejoin="round"/>
</svg>
